HIERARCHY
ROOT Hips
{
	OFFSET 0.000000 97.167313 0.000000
	CHANNELS 6 Xposition Yposition Zposition Xrotation Yrotation Zrotation
	JOINT Spine
	{
		OFFSET 0.000000 13.784798 0.064400
		CHANNELS 3 Xrotation Yrotation Zrotation
		JOINT Spine1
		{
			OFFSET 0.000000 12.037903 0.404700
			CHANNELS 3 Xrotation Yrotation Zrotation
			JOINT Spine2
			{
				OFFSET 0.000000 17.795601 0.420200
				CHANNELS 3 Xrotation Yrotation Zrotation
				JOINT Neck
				{
					OFFSET 0.000000 39.131302 11.954600
					CHANNELS 3 Xrotation Yrotation Zrotation
					JOINT Head
					{
						OFFSET 0.000000 14.456192 15.627699
						CHANNELS 3 Xrotation Yrotation Zrotation
						JOINT HeadTop_End
						{
							OFFSET 0.000000 15.703506 7.603401
							CHANNELS 3 Xrotation Yrotation Zrotation
							End Site
							{
								OFFSET 0.000000 17.447403 0.000000
							}
						}
					}
				}
				JOINT LeftShoulder
				{
					OFFSET 17.399500 24.608795 1.168800
					CHANNELS 3 Xrotation Yrotation Zrotation
					JOINT LeftArm
					{
						OFFSET 18.980635 5.765305 1.818600
						CHANNELS 3 Xrotation Yrotation Zrotation
						JOINT LeftForeArm
						{
							OFFSET 49.290169 0.000000 0.000000
							CHANNELS 3 Xrotation Yrotation Zrotation
							JOINT LeftHand
							{
								OFFSET 31.562012 0.000000 0.000000
								CHANNELS 3 Xrotation Yrotation Zrotation
								JOINT LeftHandThumb1
								{
									OFFSET 6.133995 -4.388519 7.076070
									CHANNELS 3 Xrotation Yrotation Zrotation
									JOINT LeftHandThumb2
									{
										OFFSET 6.037666 -3.485840 3.485847
										CHANNELS 3 Xrotation Yrotation Zrotation
										JOINT LeftHandThumb3
										{
											OFFSET 6.496506 -3.750763 3.750761
											CHANNELS 3 Xrotation Yrotation Zrotation
											JOINT LeftHandThumb4
											{
												OFFSET 5.616882 -3.242905 3.242910
												CHANNELS 3 Xrotation Yrotation Zrotation
												End Site
												{
													OFFSET -1.254608 7.132141 0.375429
												}
											}
										}
									}
								}
								JOINT LeftHandPinky1
								{
									OFFSET 18.920792 -0.453171 -11.426712
									CHANNELS 3 Xrotation Yrotation Zrotation
									JOINT LeftHandPinky2
									{
										OFFSET 4.919586 0.000000 0.000000
										CHANNELS 3 Xrotation Yrotation Zrotation
										JOINT LeftHandPinky3
										{
											OFFSET 5.233047 0.000000 0.000000
											CHANNELS 3 Xrotation Yrotation Zrotation
											JOINT LeftHandPinky4
											{
												OFFSET 5.571716 0.000000 0.000000
												CHANNELS 3 Xrotation Yrotation Zrotation
												End Site
												{
													OFFSET -3.459808 4.342407 -0.466164
												}
											}
										}
									}
								}
								JOINT LeftHandRing1
								{
									OFFSET 22.726120 -0.094986 -6.500475
									CHANNELS 3 Xrotation Yrotation Zrotation
									JOINT LeftHandRing2
									{
										OFFSET 6.408615 0.000000 0.000000
										CHANNELS 3 Xrotation Yrotation Zrotation
										JOINT LeftHandRing3
										{
											OFFSET 6.150223 0.000000 0.000000
											CHANNELS 3 Xrotation Yrotation Zrotation
											JOINT LeftHandRing4
											{
												OFFSET 6.145386 0.000000 0.000000
												CHANNELS 3 Xrotation Yrotation Zrotation
												End Site
												{
													OFFSET -3.671402 4.923981 -0.202372
												}
											}
										}
									}
								}
								JOINT LeftHandMiddle1
								{
									OFFSET 23.373947 0.000000 0.000001
									CHANNELS 3 Xrotation Yrotation Zrotation
									JOINT LeftHandMiddle2
									{
										OFFSET 6.996567 0.000000 0.000000
										CHANNELS 3 Xrotation Yrotation Zrotation
										JOINT LeftHandMiddle3
										{
											OFFSET 7.015945 0.000000 0.000000
											CHANNELS 3 Xrotation Yrotation Zrotation
											JOINT LeftHandMiddle4
											{
												OFFSET 7.721573 0.000000 0.000000
												CHANNELS 3 Xrotation Yrotation Zrotation
												End Site
												{
													OFFSET -4.651108 6.158463 0.251582
												}
											}
										}
									}
								}
								JOINT LeftHandIndex1
								{
									OFFSET 21.310577 -0.490082 6.209344
									CHANNELS 3 Xrotation Yrotation Zrotation
									JOINT LeftHandIndex2
									{
										OFFSET 7.536453 0.000000 0.000000
										CHANNELS 3 Xrotation Yrotation Zrotation
										JOINT LeftHandIndex3
										{
											OFFSET 7.512344 0.000000 0.000000
											CHANNELS 3 Xrotation Yrotation Zrotation
											JOINT LeftHandIndex4
											{
												OFFSET 10.212402 0.000000 0.000001
												CHANNELS 3 Xrotation Yrotation Zrotation
												End Site
												{
													OFFSET -5.180801 8.690506 1.388433
												}
											}
										}
									}
								}
							}
						}
					}
				}
				JOINT RightShoulder
				{
					OFFSET -17.399500 24.608795 1.168800
					CHANNELS 3 Xrotation Yrotation Zrotation
					JOINT RightArm
					{
						OFFSET -18.980635 5.765305 1.818600
						CHANNELS 3 Xrotation Yrotation Zrotation
						JOINT RightForeArm
						{
							OFFSET -49.290169 0.000000 0.000000
							CHANNELS 3 Xrotation Yrotation Zrotation
							JOINT RightHand
							{
								OFFSET -31.562012 0.000000 0.000000
								CHANNELS 3 Xrotation Yrotation Zrotation
								JOINT RightHandThumb1
								{
									OFFSET -6.133995 -4.388519 7.076070
									CHANNELS 3 Xrotation Yrotation Zrotation
									JOINT RightHandThumb2
									{
										OFFSET -6.037666 -3.485840 3.485847
										CHANNELS 3 Xrotation Yrotation Zrotation
										JOINT RightHandThumb3
										{
											OFFSET -6.496506 -3.750763 3.750761
											CHANNELS 3 Xrotation Yrotation Zrotation
											JOINT RightHandThumb4
											{
												OFFSET -5.616882 -3.242905 3.242910
												CHANNELS 3 Xrotation Yrotation Zrotation
												End Site
												{
													OFFSET 1.254608 7.132141 0.375429
												}
											}
										}
									}
								}
								JOINT RightHandIndex1
								{
									OFFSET -21.310577 -0.490082 6.209344
									CHANNELS 3 Xrotation Yrotation Zrotation
									JOINT RightHandIndex2
									{
										OFFSET -7.536453 0.000000 0.000000
										CHANNELS 3 Xrotation Yrotation Zrotation
										JOINT RightHandIndex3
										{
											OFFSET -7.512344 0.000000 0.000000
											CHANNELS 3 Xrotation Yrotation Zrotation
											JOINT RightHandIndex4
											{
												OFFSET -10.212402 0.000000 0.000001
												CHANNELS 3 Xrotation Yrotation Zrotation
												End Site
												{
													OFFSET 5.180801 8.690506 1.388433
												}
											}
										}
									}
								}
								JOINT RightHandMiddle1
								{
									OFFSET -23.373947 0.000000 0.000001
									CHANNELS 3 Xrotation Yrotation Zrotation
									JOINT RightHandMiddle2
									{
										OFFSET -6.996567 0.000000 0.000000
										CHANNELS 3 Xrotation Yrotation Zrotation
										JOINT RightHandMiddle3
										{
											OFFSET -7.015945 0.000000 0.000000
											CHANNELS 3 Xrotation Yrotation Zrotation
											JOINT RightHandMiddle4
											{
												OFFSET -7.721573 0.000000 0.000000
												CHANNELS 3 Xrotation Yrotation Zrotation
												End Site
												{
													OFFSET 4.651108 6.158463 0.251582
												}
											}
										}
									}
								}
								JOINT RightHandRing1
								{
									OFFSET -22.726120 -0.094986 -6.500475
									CHANNELS 3 Xrotation Yrotation Zrotation
									JOINT RightHandRing2
									{
										OFFSET -6.408615 0.000000 0.000000
										CHANNELS 3 Xrotation Yrotation Zrotation
										JOINT RightHandRing3
										{
											OFFSET -6.150223 0.000000 0.000000
											CHANNELS 3 Xrotation Yrotation Zrotation
											JOINT RightHandRing4
											{
												OFFSET -6.145386 0.000000 0.000000
												CHANNELS 3 Xrotation Yrotation Zrotation
												End Site
												{
													OFFSET 3.671402 4.923981 -0.202372
												}
											}
										}
									}
								}
								JOINT RightHandPinky1
								{
									OFFSET -18.920792 -0.453171 -11.426712
									CHANNELS 3 Xrotation Yrotation Zrotation
									JOINT RightHandPinky2
									{
										OFFSET -4.919586 0.000000 0.000000
										CHANNELS 3 Xrotation Yrotation Zrotation
										JOINT RightHandPinky3
										{
											OFFSET -5.233047 0.000000 0.000000
											CHANNELS 3 Xrotation Yrotation Zrotation
											JOINT RightHandPinky4
											{
												OFFSET -5.571716 0.000000 0.000000
												CHANNELS 3 Xrotation Yrotation Zrotation
												End Site
												{
													OFFSET 3.459808 4.342407 -0.466164
												}
											}
										}
									}
								}
							}
						}
					}
				}
			}
		}
	}
	JOINT LeftUpLeg
	{
		OFFSET 19.899099 -7.885101 -3.429500
		CHANNELS 3 Xrotation Yrotation Zrotation
		JOINT LeftLeg
		{
			OFFSET 1.745560 -36.997807 10.304700
			CHANNELS 3 Xrotation Yrotation Zrotation
			JOINT LeftFoot
			{
				OFFSET -1.745558 -29.803308 -13.615400
				CHANNELS 3 Xrotation Yrotation Zrotation
				JOINT LeftToeBase
				{
					OFFSET 1.181900 -18.539904 15.226099
					CHANNELS 3 Xrotation Yrotation Zrotation
					JOINT LeftToe_End
					{
						OFFSET -0.863701 1.402801 16.534700
						CHANNELS 3 Xrotation Yrotation Zrotation
						End Site
						{
							OFFSET 0.000000 16.616566 0.000000
						}
					}
				}
			}
		}
	}
	JOINT RightUpLeg
	{
		OFFSET -19.899099 -7.885101 -3.429500
		CHANNELS 3 Xrotation Yrotation Zrotation
		JOINT RightLeg
		{
			OFFSET -1.745560 -36.997807 10.304700
			CHANNELS 3 Xrotation Yrotation Zrotation
			JOINT RightFoot
			{
				OFFSET 1.745558 -29.803308 -13.615400
				CHANNELS 3 Xrotation Yrotation Zrotation
				JOINT RightToeBase
				{
					OFFSET -1.181900 -18.539904 15.226099
					CHANNELS 3 Xrotation Yrotation Zrotation
					JOINT RightToe_End
					{
						OFFSET 0.863701 1.402801 16.534700
						CHANNELS 3 Xrotation Yrotation Zrotation
						End Site
						{
							OFFSET 0.000000 16.616566 0.000000
						}
					}
				}
			}
		}
	}
}
MOTION
Frames: 5
Frame Time: 0.033333
-5.641308 78.409561 1.674941 -73.106670 -98.371397 -75.112273 5.080777 -3.021500 -1.254704 4.847008 -2.724695 -1.011895 4.872821 -2.670292 -1.025826 -6.470356 11.543117 1.332228 1.868940 69.226453 6.189716 -0.000000 0.000002 0.000001 2.334452 -16.473651 5.405047 -58.657610 -59.148332 -60.618994 -0.000660 -91.815808 -0.000628 -1.362839 2.416335 38.308410 2.333982 -4.852066 -3.963509 13.533813 36.265897 -6.789669 18.237338 69.607646 3.188471 -0.000001 0.000002 0.000001 2.878052 7.353372 -58.659693 3.100868 5.166403 -61.922256 2.817852 5.005795 -58.730563 0.000001 -0.000000 0.000001 3.051707 7.454252 -60.629725 5.249922 5.820197 -84.092818 2.817869 5.005790 -58.730550 0.000002 0.000001 0.000005 2.878046 7.353392 -58.659666 6.420563 5.823382 -95.595259 1.278796 3.654825 -38.558757 0.000001 -0.000003 0.000004 2.878041 7.353375 -58.659666 6.385706 5.826670 -95.251844 2.817825 5.005779 -58.730556 -0.000001 0.000001 0.000001 2.128881 10.933919 -13.435715 -35.469189 -9.785014 14.948765 65.603482 147.292223 -40.615074 -3.487215 38.281585 -6.676095 2.454520 6.926589 5.617166 7.810737 -26.809466 -3.040588 18.936175 -62.858716 1.747723 -0.000001 0.000000 0.000001 2.770846 -6.512085 65.405393 4.589354 -4.656693 89.164698 1.495829 -3.421545 47.217518 -0.000001 -0.000001 0.000001 2.634512 -6.539979 74.809245 5.688703 -4.541745 102.810275 1.460397 -3.388480 46.621123 -0.000001 0.000001 -0.000001 3.122538 -6.655067 70.080903 5.298700 -4.612848 97.926307 2.043377 -3.855864 55.828979 -0.000003 0.000003 -0.000001 4.911937 -9.704393 53.806222 4.184461 -4.633166 84.168005 1.827798 -3.700675 52.558531 0.000003 0.000003 0.000003 -40.195038 5.632021 32.957469 42.179038 -12.188274 -0.322020 -9.641209 3.974394 -18.766928 -0.167844 0.001238 -0.428354 -0.000000 -0.000000 -0.000000 -38.641208 -1.812089 -18.456529 49.092265 -1.226379 2.487882 -14.462727 -4.737377 14.656304 0.000002 -0.000009 0.000002 -0.000000 -0.000002 0.000000 
-5.636291 78.416016 1.687135 -72.722902 -98.421797 -74.745957 5.078687 -3.019025 -1.274466 4.844404 -2.718828 -1.016659 4.870125 -2.664663 -1.030255 -6.472240 11.491366 1.348987 2.131699 68.962166 6.057487 0.000001 -0.000002 -0.000001 2.322055 -16.341108 5.429069 -58.859640 -59.159041 -60.895938 -0.000096 -91.746154 0.000057 -1.314916 2.362814 38.313407 2.333978 -4.852064 -3.963508 13.533817 36.265893 -6.789664 18.237339 69.607639 3.188472 -0.000000 0.000001 0.000001 2.878044 7.353375 -58.659686 3.100876 5.166404 -61.922249 2.817851 5.005798 -58.730556 0.000000 0.000004 -0.000002 3.051703 7.454256 -60.629731 5.249917 5.820194 -84.092825 2.817869 5.005786 -58.730550 -0.000003 0.000001 0.000005 2.878041 7.353397 -58.659666 6.420567 5.823387 -95.595252 1.278797 3.654829 -38.558754 0.000001 -0.000001 0.000004 2.878041 7.353377 -58.659666 6.385708 5.826666 -95.251844 2.817823 5.005780 -58.730550 -0.000000 0.000003 -0.000001 2.137533 10.979702 -13.408613 -35.504232 -9.767715 14.950333 65.629300 147.275858 -40.661243 -3.516232 38.258628 -6.582674 2.454398 6.926331 5.616734 7.810654 -26.809360 -3.042314 18.939693 -62.862008 1.750268 0.000002 -0.000004 0.000002 2.771986 -6.512588 65.405659 4.589561 -4.656681 89.167232 1.496056 -3.421742 47.221305 0.000000 -0.000001 -0.000001 2.635807 -6.540341 74.810352 5.689140 -4.541623 102.815746 1.460558 -3.388632 46.623834 0.000002 0.000001 -0.000001 3.123528 -6.655436 70.080780 5.299407 -4.612762 97.934947 2.043378 -3.855845 55.828781 0.000000 0.000002 -0.000005 4.912987 -9.705044 53.806939 4.184877 -4.633211 84.173107 1.828013 -3.700856 52.561741 0.000000 -0.000004 0.000005 -40.183137 5.622961 32.993400 42.187944 -12.134466 -0.338490 -9.671265 3.984428 -18.781461 -0.167804 0.001239 -0.428258 -0.000000 -0.000000 0.000000 -38.703670 -1.817234 -18.413736 49.038993 -1.200266 2.469952 -14.400718 -4.721609 14.636218 -0.009090 0.000010 0.000000 -0.000000 -0.000000 -0.000000 
-5.631624 78.423439 1.705946 -72.351989 -98.479204 -74.388512 5.076115 -3.011990 -1.291299 4.840509 -2.708469 -1.017790 4.865928 -2.654854 -1.030789 -6.464958 11.440142 1.364103 2.414015 68.692162 5.914419 0.000000 0.000000 -0.000000 2.306514 -16.198495 5.430251 -58.996059 -59.236031 -61.100379 -0.000128 -91.673310 -0.000178 -1.298017 2.275205 38.304616 2.333981 -4.852067 -3.963508 13.533817 36.265887 -6.789668 18.237339 69.607639 3.188479 0.000001 -0.000000 0.000003 2.878052 7.353376 -58.659693 3.100875 5.166405 -61.922249 2.817849 5.005793 -58.730556 0.000001 0.000002 -0.000002 3.051704 7.454257 -60.629731 5.249918 5.820198 -84.092818 2.817871 5.005782 -58.730543 -0.000001 0.000001 0.000003 2.878047 7.353392 -58.659666 6.420564 5.823385 -95.595252 1.278798 3.654826 -38.558757 0.000000 -0.000002 0.000001 2.878041 7.353382 -58.659666 6.385709 5.826670 -95.251844 2.817826 5.005779 -58.730556 -0.000000 0.000002 -0.000003 2.144213 11.021787 -13.371805 -35.436124 -9.777123 14.962566 65.560937 147.246803 -40.627526 -3.498368 38.271138 -6.611305 2.454172 6.926142 5.616165 7.810613 -26.808633 -3.043454 18.941986 -62.864132 1.751687 0.000000 0.000000 0.000001 2.772800 -6.512958 65.405079 4.589664 -4.656682 89.168174 1.496203 -3.421874 47.223952 0.000002 -0.000003 -0.000001 2.636862 -6.540607 74.810338 5.689408 -4.541573 102.819106 1.460666 -3.388726 46.625538 0.000000 -0.000000 -0.000004 3.124378 -6.655743 70.079845 5.299893 -4.612687 97.941088 2.043288 -3.855787 55.827811 -0.000002 -0.000000 -0.000003 4.913740 -9.705829 53.807066 4.185143 -4.633254 84.176399 1.828153 -3.700941 52.563821 -0.000000 0.000003 0.000006 -40.171068 5.610458 33.017476 42.198551 -12.069796 -0.355997 -9.705098 3.995580 -18.793713 -0.167756 0.001260 -0.428152 -0.000000 -0.000000 0.000000 -38.777108 -1.829150 -18.383295 48.978306 -1.156362 2.453930 -14.328171 -4.705560 14.615693 -0.017146 0.000004 -0.000002 -0.000000 -0.000002 0.000000 
-5.627793 78.434349 1.734177 -71.955811 -98.541120 -74.002088 5.075210 -2.999728 -1.304080 4.837584 -2.693244 -1.014411 4.862466 -2.640469 -1.026595 -6.446777 11.388442 1.375913 2.719784 68.410157 5.748284 -0.000001 0.000000 0.000002 2.286403 -16.037557 5.400856 -59.066834 -59.391937 -61.232052 0.000345 -91.591273 0.000126 -1.288747 2.170079 38.260500 2.333979 -4.852057 -3.963505 13.533814 36.265897 -6.789671 18.237329 69.607633 3.188480 0.000007 0.000002 0.000001 2.878050 7.353377 -58.659693 3.100873 5.166405 -61.922256 2.817852 5.005793 -58.730556 0.000000 -0.000001 0.000001 3.051707 7.454252 -60.629725 5.249915 5.820196 -84.092818 2.817869 5.005779 -58.730550 0.000000 -0.000001 0.000003 2.878044 7.353394 -58.659673 6.420562 5.823384 -95.595259 1.278795 3.654832 -38.558757 -0.000003 0.000003 0.000007 2.878039 7.353383 -58.659673 6.385708 5.826672 -95.251844 2.817824 5.005782 -58.730550 0.000002 0.000003 -0.000001 2.149627 11.061845 -13.328258 -35.235652 -9.823777 15.026633 65.378400 147.183746 -40.512010 -3.435834 38.366098 -6.752747 2.454542 6.926901 5.617486 7.810820 -26.809029 -3.038425 18.931625 -62.854549 1.744238 -0.000002 -0.000001 0.000001 2.769484 -6.511473 65.404396 4.589050 -4.656675 89.160982 1.495542 -3.421276 47.212904 -0.000002 0.000001 -0.000004 2.633035 -6.539543 74.807210 5.688132 -4.541858 102.803185 1.460193 -3.388289 46.617629 0.000002 0.000001 -0.000002 3.121483 -6.654700 70.080384 5.297867 -4.612955 97.915857 2.043354 -3.855843 55.828518 -0.000003 -0.000001 -0.000003 4.910671 -9.703887 53.805064 4.183951 -4.633103 84.161605 1.827533 -3.700503 52.554436 0.000003 -0.000001 0.000004 -40.152145 5.601719 33.030952 42.209999 -11.994572 -0.376060 -9.745871 4.007648 -18.799529 -0.167899 0.001254 -0.428482 0.000000 0.000000 -0.000000 -38.856874 -1.847980 -18.363508 48.902368 -1.092024 2.436100 -14.238212 -4.688246 14.597654 -0.029772 -0.000005 -0.000000 0.000000 0.000000 0.000000 
-5.624993 78.453003 1.775006 -71.494554 -98.604388 -73.549758 5.078500 -2.983933 -1.311428 4.838436 -2.674856 -1.005959 4.862579 -2.623180 -1.017241 -6.419263 11.333352 1.388151 3.054181 68.111828 5.545578 -0.000000 0.000001 -0.000001 2.261683 -15.848908 5.349580 -59.117063 -59.604431 -61.361190 -0.001292 -91.489653 -0.001217 -1.238476 2.080081 38.184927 2.333980 -4.852064 -3.963512 13.533813 36.265897 -6.789662 18.237334 69.607639 3.188472 0.000004 0.000001 -0.000002 2.878052 7.353371 -58.659686 3.100869 5.166407 -61.922256 2.817848 5.005796 -58.730556 0.000001 0.000003 -0.000004 3.051707 7.454253 -60.629725 5.249921 5.820197 -84.092818 2.817868 5.005779 -58.730556 -0.000003 0.000003 0.000002 2.878044 7.353394 -58.659659 6.420567 5.823384 -95.595252 1.278798 3.654825 -38.558757 0.000003 -0.000002 0.000004 2.878042 7.353379 -58.659673 6.385706 5.826668 -95.251844 2.817822 5.005782 -58.730556 -0.000000 0.000003 0.000001 2.157733 11.116991 -13.273215 -34.938784 -9.916436 15.171860 65.119884 147.076772 -40.359748 -3.370098 38.553874 -6.890610 2.455437 6.928032 5.620093 7.811084 -26.811240 -3.031238 18.917080 -62.840998 1.734444 0.000002 0.000002 0.000003 2.764532 -6.509172 65.405420 4.588381 -4.656668 89.152540 1.494593 -3.420377 47.196720 -0.000001 -0.000001 0.000001 2.627017 -6.537885 74.804621 5.686396 -4.542256 102.781137 1.459529 -3.387682 46.606530 -0.000003 0.000000 -0.000004 3.116752 -6.653000 70.083369 5.294889 -4.613376 97.878585 2.043563 -3.855958 55.831705 0.000003 0.000001 -0.000005 4.906065 -9.700107 53.803005 4.182249 -4.632941 84.140622 1.826709 -3.699843 52.541172 -0.000003 0.000000 0.000001 -40.116587 5.599302 33.034668 42.220333 -11.904700 -0.397882 -9.796322 4.020790 -18.798115 -0.167868 0.001283 -0.428452 -0.000000 0.000001 -0.000000 -38.931546 -1.870749 -18.347710 48.800411 -1.019609 2.410594 -14.128998 -4.668543 14.583419 -0.049204 -0.000036 0.000004 0.000000 -0.000000 0.000000 
